{"title":"Zookeeper.2011.CAM.doude422","uid":6549141,"size":709543806,"categoryP":"video","categoryS":"movies","magnet":"?xt=urn:btih:f51744164a0c6153d3d8027fc33a2d8dc151ed9c&amp;dn=Zookeeper.2011.CAM.doude422&amp;tr=udp%3A%2F%2Ftracker.openbittorrent.com%3A80&amp;tr=udp%3A%2F%2Fopen.demonii.com%3A1337&amp;tr=udp%3A%2F%2Ftracker.coppersurfer.tk%3A6969&amp;tr=udp%3A%2F%2Fexodus.desync.com%3A6969","seeders":0,"leechers":0,"uploader":"doude422","files":1,"time":1311000859,"description":"\nCast\n\n Kevin James ... Griffin Keyes\n Rosario Dawson ... Kate\n Leslie Bibb ... Stephanie\n Ken Jeong ... Venom\n Donnie Wahlberg ... Shane\n Joe Rogan ... Gale\n Nat Faxon ... Dave\n Steffiana De La Cruz ... Robin\n Nick Bakay ... Franky (voice)\n\n\nPlot:\n\nA group of zoo animals decide to break their code of silence in order to help their lovable zookeeper (Kevin James) find love -- without opting to leave his current job for something more illustrious. woman.\n\n\n\nVideo\n\nFormat: MPEG-4 Visual\nFormat profile: Advanced Simple@L5\nFormat settings, BVOP: Yes\nFormat settings, QPel: No\nFormat settings, GMC: No warppoints\nFormat settings, Matrix: Custom\nCodec ID: XVID\nCodec ID/Hint: XviD\nDuration: 1h 36mn\nBit rate: 1038 Kbps\nWidth: 640 pixels\nHeight: 272 pixels\nDisplay aspect ratio: 2.35:1\nFrame rate: 29.970 fps\nColor space: YUV\nChroma subsampling: 4:2:0\nBit depth: 8 bits\nScan type: Progressive\nBits/(Pixel*Frame): 0.161\nStream size: 579 MiB (86%)\nWriting library: XviD 1.2.1 (UTC 2008-12-04)\n\n\nAudio\n\nID: 1\nFormat: MPEG Audio\nFormat version: Version 1\nFormat profile: Layer 3\nMode: Joint stereo\nMode extension: MS Stereo\nCodec ID: 55\nCodec ID/Hint: MP3\nDuration: 1h 36mn\nBit rate mode: Constant\nBit rate: 128 Kbps\nChannel(s): 2 channels\nSampling rate: 48.0 KHz\nStream size: 88.4 MiB (13%)\nAlignment: Aligned on interleaves\nInterleave, duration: 24 ms (0.72 video frame)\nInterleave, preload duration: 504 ms\n\nScreen\n &lt;a href=&quot;\nhttp://www.postimg.com/image/42000/photo-41498.jpg&quot; rel=&quot;nofollow&quot; target=&quot;_NEW&quot;&gt;\nhttp://www.postimg.com/image/42000/photo-41498.jpg&lt;/a&gt;\n\n\n-----------------------------------------------------------------------------------\n\n\n\n\n              d  oooooo  u   u     d  eeeee\n              d  o    o  u   u     d  e\n              d  o    o  u   u     d  e\n              d  o    o  u   u     d  eeeee\n              d  o    o  u   u     d  e\n          ddddd  o    o  u   u  dddd  e\n          d   d  o    o  u   u  d  d  e \n          d   d  o    o  u   u  d  d  e\n          ddddd  oooooo  uuuuu  dddd  eeeee","torrent":{"xt":"urn:btih:f51744164a0c6153d3d8027fc33a2d8dc151ed9c","amp;dn":"Zookeeper.2011.CAM.doude422","amp;tr":["udp%3A%2F%2Ftracker.openbittorrent.com%3A80","udp%3A%2F%2Fopen.demonii.com%3A1337","udp%3A%2F%2Ftracker.coppersurfer.tk%3A6969","udp%3A%2F%2Fexodus.desync.com%3A6969"],"infoHash":"f51744164a0c6153d3d8027fc33a2d8dc151ed9c","infoHashBuffer":{"type":"Buffer","data":[245,23,68,22,74,12,97,83,211,216,2,127,195,58,45,141,193,81,237,156]},"announce":[],"urlList":[]}}